<?xml version="1.0" encoding="UTF-8"?>
<svg version="1.1" xmlns="http://www.w3.org/2000/svg" width="2520" height="1200">
<path d="M0 0 C74.79452577 -0.08052313 74.79452577 -0.08052313 97.95140076 -0.1026001 C98.77726492 -0.10338943 99.60312908 -0.10417877 100.45401943 -0.10499202 C128.28188913 -0.1315169 156.10976016 -0.15250927 183.93763733 -0.16937256 C184.84659137 -0.16992479 185.75554542 -0.17047702 186.69204352 -0.17104598 C206.45101363 -0.18302051 226.20998415 -0.19410083 245.96895527 -0.20426132 C255.66021181 -0.20925021 265.35146823 -0.21443649 275.04272461 -0.21972656 C276.00706763 -0.2202496 276.97141064 -0.22077263 277.96497617 -0.22131152 C309.16350155 -0.23832521 340.36199775 -0.26834663 371.56050548 -0.30518888 C403.64893452 -0.34301278 435.73734743 -0.36756339 467.82579838 -0.37565996 C472.36890248 -0.3768124 476.91200652 -0.37811495 481.45511055 -0.37950897 C482.79619538 -0.37991351 482.79619538 -0.37991351 484.16437283 -0.38032622 C498.49590593 -0.38503395 512.82738887 -0.4035341 527.1589016 -0.42732814 C541.60343765 -0.45101053 556.04792451 -0.45983882 570.49247926 -0.45400551 C578.30402409 -0.45125051 586.11543461 -0.45478854 593.92695236 -0.4768219 C632.86943654 -0.58233718 670.04016633 0.21116855 708 10 C709.00256836 10.25620117 710.00513672 10.51240234 711.03808594 10.77636719 C763.24582604 24.38760986 811.81084935 51.56639179 851.1875 88.375 C854.02508659 91.02341415 856.91500241 93.6049478 859.8125 96.1875 C863.52430813 99.56042693 866.92714579 103.00024724 870.1484375 106.83984375 C872.39026547 109.45530971 874.76005728 111.93284165 877.125 114.4375 C895.0388533 133.82334435 909.83510865 156.64655084 922 180 C922.33902344 180.63711914 922.67804688 181.27423828 923.02734375 181.93066406 C945.74998819 224.70140044 960.24939624 274.86222334 960.12304783 323.47358227 C960.12420167 324.5803407 960.12535552 325.68709914 960.12654433 326.82739571 C960.12918557 330.52607435 960.12470942 334.22470923 960.12025452 337.92338562 C960.12069073 340.60575098 960.12152444 343.28811355 960.12284368 345.97047836 C960.12491159 351.79716511 960.12328362 357.62384163 960.11920547 363.45052719 C960.11315836 372.1145293 960.1128708 380.77852498 960.11374746 389.44252881 C960.11505998 404.0183507 960.11172522 418.59416806 960.10573006 433.16998863 C960.09981042 447.59918935 960.09596358 462.02838818 960.09487724 476.4575901 C960.0948085 477.35518668 960.09473976 478.25278326 960.09466894 479.17757973 C960.0943306 483.73613029 960.09402922 488.29468085 960.09374207 492.85323141 C960.09164238 525.1305898 960.08490703 557.40794573 960.07543945 589.68530273 C960.0662532 621.03979479 960.05917047 652.39428617 960.05493164 683.7487793 C960.05480011 684.71548074 960.05466859 685.68218218 960.05453308 686.67817761 C960.05321454 696.38630494 960.05193873 706.09443227 960.05069422 715.80255961 C960.04815809 735.57864431 960.04533684 755.35472896 960.04234314 775.1308136 C960.04220585 776.04006023 960.04206856 776.94930686 960.04192711 777.88610642 C960.03770452 805.75217081 960.03227358 833.61823478 960.02565002 861.48429871 C960.02536869 862.6708824 960.02536869 862.6708824 960.02508167 863.88143748 C960.01746683 895.92095851 960.00857261 927.96047921 960 960 C880.8 960 801.6 960 720 960 C720 1039.2 720 1118.4 720 1200 C645.20547423 1200.08052313 645.20547423 1200.08052313 622.04859924 1200.1026001 C621.22273508 1200.10338943 620.39687092 1200.10417877 619.54598057 1200.10499202 C591.71811087 1200.1315169 563.89023984 1200.15250927 536.06236267 1200.16937256 C535.15340863 1200.16992479 534.24445458 1200.17047702 533.30795648 1200.17104598 C513.54898637 1200.18302051 493.79001585 1200.19410083 474.03104473 1200.20426132 C464.33978819 1200.20925021 454.64853177 1200.21443649 444.95727539 1200.21972656 C443.51076087 1200.22051112 443.51076087 1200.22051112 442.03502383 1200.22131152 C410.83649845 1200.23832521 379.63800225 1200.26834663 348.43949452 1200.30518888 C316.35106548 1200.34301278 284.26265257 1200.36756339 252.17420162 1200.37565996 C247.63109752 1200.3768124 243.08799348 1200.37811495 238.54488945 1200.37950897 C237.20380462 1200.37991351 237.20380462 1200.37991351 235.83562717 1200.38032622 C221.50409407 1200.38503395 207.17261113 1200.4035341 192.8410984 1200.42732814 C178.39656235 1200.45101053 163.95207549 1200.45983882 149.50752074 1200.45400551 C141.69597591 1200.45125051 133.88456539 1200.45478854 126.07304764 1200.4768219 C87.13056346 1200.58233718 49.95983367 1199.78883145 12 1190 C10.99743164 1189.74379883 9.99486328 1189.48759766 8.96191406 1189.22363281 C-43.24404807 1175.61285368 -91.81421761 1148.43045963 -131.1875 1111.625 C-134.02508659 1108.97658585 -136.91500241 1106.3950522 -139.8125 1103.8125 C-143.52430813 1100.43957307 -146.92714579 1096.99975276 -150.1484375 1093.16015625 C-152.39026547 1090.54469029 -154.76005728 1088.06715835 -157.125 1085.5625 C-175.0388533 1066.17665565 -189.83510865 1043.35344916 -202 1020 C-202.33902344 1019.36288086 -202.67804688 1018.72576172 -203.02734375 1018.06933594 C-225.74998819 975.29859956 -240.24939624 925.13777666 -240.12304783 876.52641773 C-240.12420167 875.4196593 -240.12535552 874.31290086 -240.12654433 873.17260429 C-240.12918557 869.47392565 -240.12470942 865.77529077 -240.12025452 862.07661438 C-240.12069073 859.39424902 -240.12152444 856.71188645 -240.12284368 854.02952164 C-240.12491159 848.20283489 -240.12328362 842.37615837 -240.11920547 836.54947281 C-240.11315836 827.8854707 -240.1128708 819.22147502 -240.11374746 810.55747119 C-240.11505998 795.9816493 -240.11172522 781.40583194 -240.10573006 766.83001137 C-240.09981042 752.40081065 -240.09596358 737.97161182 -240.09487724 723.5424099 C-240.0948085 722.64481332 -240.09473976 721.74721674 -240.09466894 720.82242027 C-240.0943306 716.26386971 -240.09402922 711.70531915 -240.09374207 707.14676859 C-240.09164238 674.8694102 -240.08490703 642.59205427 -240.07543945 610.31469727 C-240.0662532 578.96020521 -240.05917047 547.60571383 -240.05493164 516.2512207 C-240.05480011 515.28451926 -240.05466859 514.31781782 -240.05453308 513.32182239 C-240.05321454 503.61369506 -240.05193873 493.90556773 -240.05069422 484.19744039 C-240.04815809 464.42135569 -240.04533684 444.64527104 -240.04234314 424.8691864 C-240.04220585 423.95993977 -240.04206856 423.05069314 -240.04192711 422.11389358 C-240.03770452 394.24782919 -240.03227358 366.38176522 -240.02565002 338.51570129 C-240.02546247 337.7246455 -240.02527491 336.9335897 -240.02508167 336.11856252 C-240.01746683 304.07904149 -240.00857261 272.03952079 -240 240 C-160.8 240 -81.6 240 0 240 C0 160.8 0 81.6 0 0 Z M0 240 C0 421.5 0 603 0 790 C5.8304288 785.01472046 5.8304288 785.01472046 11.35112137 779.7742278 C12.54223626 778.58686819 12.54223626 778.58686819 13.75741407 777.37552151 C15.03656979 776.09285404 15.03656979 776.09285404 16.34156704 774.7842741 C17.26643086 773.86086372 18.19129468 772.93745334 19.14418468 771.98606083 C21.70764993 769.42648159 24.26800387 766.86380994 26.82785283 764.30061473 C29.61462054 761.51130737 32.40428864 758.72490328 35.19358546 755.93812543 C40.08046676 751.05485488 44.9654859 746.16972768 49.84928703 741.28337669 C57.11134191 734.01754055 64.37625101 726.7545633 71.64172537 719.49214667 C84.61578421 706.52335483 97.58697929 693.5517017 110.55696081 680.57883231 C121.90337002 669.22990906 133.25070633 657.88191383 144.59897041 646.53484535 C145.35127554 645.78261661 146.10358066 645.03038787 146.87868291 644.25536433 C149.93235178 641.20200678 152.98602419 638.14865277 156.03970242 635.09530458 C184.68764781 606.45041857 213.33267533 577.80261626 241.97640016 549.15350994 C267.44511361 523.68004793 292.91641507 498.20917644 318.38989258 472.74047852 C346.9951378 444.14058252 375.59877372 415.53907861 404.19979769 386.93496114 C407.24577525 383.88866284 410.29175676 380.8423685 413.33773994 377.79607582 C414.08776515 377.04597154 414.83779036 376.29586725 415.61054361 375.52303253 C426.95686326 364.17557346 438.30442002 352.82935248 449.65257072 341.48372459 C462.54595015 328.59319718 475.43755605 315.70089908 488.32678901 302.80622556 C495.54826752 295.58179979 502.77113411 288.35876827 509.99596536 281.13769539 C514.81210538 276.32378547 519.62644745 271.50808256 524.43928504 266.69087094 C527.18768729 263.9400733 529.93689975 261.19009819 532.68828153 258.44228043 C535.64131332 255.49303521 538.59052559 252.54000118 541.53932095 249.5865202 C542.40847959 248.71970272 543.27763823 247.85288524 544.17313501 246.95980057 C544.94968698 246.18074509 545.72623894 245.40168961 546.52632278 244.59902638 C547.20233644 243.92294497 547.87835009 243.24686356 548.57484901 242.55029483 C550.11279473 241.22827033 550.11279473 241.22827033 550 240 C368.5 240 187 240 0 240 Z M715.36842149 415.50622934 C714.58209499 416.29005232 713.79576849 417.07387531 712.98561391 417.8814505 C712.11066397 418.75874161 711.23571403 419.63603272 710.33425045 420.53990841 C709.4095562 421.46314922 708.48486195 422.38639003 707.53214666 423.33760783 C704.94116393 425.92466342 702.3533441 428.51486349 699.7659875 431.10554494 C696.9598328 433.91421955 694.15080144 436.72001451 691.34212357 439.52616554 C686.41190902 444.45275472 681.48357569 449.38121965 676.55644417 454.31089211 C669.22986169 461.64124273 661.90044151 468.968751 654.57044271 476.29568526 C641.48242466 489.37842548 628.39728338 502.46404003 615.31334586 515.55086101 C603.86367808 527.00303985 592.41308688 538.45429436 580.96156502 549.90461922 C580.20330207 550.66280578 579.44503912 551.42099234 578.66379851 552.20215426 C575.58611395 555.2795275 572.50842585 558.3568972 569.43073192 561.43426108 C540.53277026 590.3291606 511.63773122 619.2269812 482.74398949 648.12610041 C457.04800293 673.82683292 431.34943233 699.52497891 405.64868164 725.22094727 C376.80396289 754.06031666 347.96085373 782.90129426 319.12035614 811.74488503 C316.04844703 814.81711488 312.97653396 817.88934079 309.90461922 820.96156502 C309.1481824 821.71808091 308.39174559 822.4745968 307.61238645 823.25403741 C296.16648198 834.70108154 284.71933993 846.14688708 273.27160454 857.59210014 C260.26096655 870.59988582 247.25210263 883.60944273 234.245611 896.62137442 C226.95750973 903.91242305 219.66802021 911.20207732 212.3765662 918.48977305 C207.51580458 923.34830454 202.65684096 928.20862909 197.79938176 933.07046226 C195.02538795 935.84685151 192.25058378 938.6224182 189.47361045 941.39582758 C186.4930245 944.37262697 183.51625794 947.35321531 180.53990841 950.33425045 C179.6626173 951.20920039 178.78532619 952.08415034 177.8814505 952.98561391 C177.09762752 953.77194041 176.31380454 954.55826692 175.50622934 955.36842149 C174.82388187 956.05083673 174.1415344 956.73325196 173.43850973 957.43634644 C171.88715943 958.76854159 171.88715943 958.76854159 172 960 C352.84 960 533.68 960 720 960 C720 779.16 720 598.32 720 412 C718.06147063 412 716.64325708 414.23152034 715.36842149 415.50622934 Z " fill="#FFFFFF" transform="translate(1560,0)"/>
<path d="M0 0 C88.61745988 -17.44248897 181.71592918 -27.88011386 379.57918958 21.69274735 C427.31676273 54.01824512 469.01253015 94.3929339 509.48828125 135.1875 C511.18692711 136.89583573 512.8856179 138.60412679 514.58435363 140.31237316 C556.25407999 182.26093581 596.32989557 225.60801781 635.78176616 269.63836026 C661.33329335 298.15502091 687.29930606 326.22345603 713.69360352 353.96191406 C715.48495788 355.84555684 717.27630105 357.72921026 719.06763309 359.61287427 C733.64354199 374.93602026 748.24557464 390.2342303 762.85390166 405.52646551 C829.45690802 475.28462733 893.99955569 546.6744863 959 618 C959.33 414.06 959.66 210.12 960 0 C1039.2 0 1118.4 0 1200 0 C1200.06039235 93.82461827 1200.06039235 93.82461827 1200.07695007 122.85749817 C1200.07783807 124.41065269 1200.07783807 124.41065269 1200.07874402 125.99518406 C1200.09862165 160.85617832 1200.11437269 195.71717317 1200.12702942 230.57817078 C1200.12765068 232.28495266 1200.12765068 232.28495266 1200.12828448 234.02621498 C1200.13726357 258.75588158 1200.14557406 283.48554835 1200.15319599 308.2152154 C1200.15693794 320.34293987 1200.16082761 332.47066428 1200.16479492 344.59838867 C1200.1651872 345.80523199 1200.16557948 347.01207531 1200.16598364 348.25548963 C1200.17876376 387.36065461 1200.20129476 426.46580657 1200.22889166 465.57096367 C1200.25720355 505.76234838 1200.27565961 545.95372589 1200.28174497 586.1451204 C1200.28260941 591.82410991 1200.28358632 597.50309938 1200.28463173 603.18208885 C1200.284834 604.29977655 1200.28503627 605.41746426 1200.28524467 606.56902128 C1200.28878744 624.54825212 1200.30269523 642.52746066 1200.3204961 660.50668241 C1200.33817763 678.58940449 1200.34489897 696.67210451 1200.34050413 714.75483493 C1200.33822541 725.49320195 1200.34427876 736.2314881 1200.36239263 746.96984049 C1200.37367804 754.1519806 1200.37396592 761.33406801 1200.36549544 768.51621182 C1200.3609852 772.60278631 1200.36108156 776.68920832 1200.37464955 780.77576617 C1200.43627411 800.47751848 1199.99329875 819.51593385 1194.3125 838.5625 C1193.93013184 839.86344604 1193.93013184 839.86344604 1193.54003906 841.19067383 C1185.81489451 866.48659968 1172.13250613 888.88579767 1154 908 C1153.53787109 908.49467773 1153.07574219 908.98935547 1152.59960938 909.49902344 C1139.8692187 923.05530446 1125.53737872 933.533992 1109 942 C1108.38302246 942.31807617 1107.76604492 942.63615234 1107.13037109 942.96386719 C1086.89565509 953.25598689 1063.81184577 960.05682656 1041.01171875 960.203125 C1040.27525116 960.21018463 1039.53878357 960.21724426 1038.77999878 960.22451782 C1008.00714303 960.4525309 1008.00714303 960.4525309 994 957 C993.1867627 956.80664062 992.37352539 956.61328125 991.53564453 956.4140625 C964.63036312 949.85105766 938.43042968 937.68722177 918.05559665 918.65320033 C917.50235305 918.13898981 916.94910945 917.6247793 916.37910089 917.09498664 C909.14892551 910.32752098 902.16879314 903.30652479 895.17295361 896.29879475 C893.6043687 894.73125487 892.03556504 893.16393387 890.46656451 891.59681001 C886.16911225 887.30323731 881.87475934 883.00657657 877.58092179 878.70938934 C873.38721079 874.51339825 869.19113125 870.31977736 864.99513111 866.12607571 C856.31518985 857.45072072 847.63760797 848.77300929 838.96132851 840.09399223 C830.17468105 831.30458928 821.38694316 822.51627869 812.59788513 813.72928619 C812.04185603 813.17338626 811.48582692 812.61748633 810.91294845 812.04474095 C808.64818688 809.78051266 806.38341759 807.51629209 804.11863852 805.25208129 C783.04760042 784.18632655 761.97902094 763.11811449 740.91202354 742.04831886 C740.28838536 741.42459789 739.66474718 740.80087691 739.02221088 740.1582553 C738.08525935 739.22117938 738.08525935 739.22117938 737.12937951 738.26517264 C718.09678102 719.23005059 699.06324643 700.19586516 680.02878761 681.16260338 C678.75397099 679.88786423 677.47915452 678.61312492 676.20433822 677.33838545 C671.08146107 672.21581877 665.95857982 667.09325618 660.83569258 661.97069958 C646.51644695 647.65237088 632.19737445 633.33386903 617.878438 619.01523113 C617.22644071 618.3632475 616.57444343 617.71126386 615.90268866 617.03952315 C595.13221961 596.26946328 574.36251843 575.49863573 553.59334087 554.72728443 C552.91983648 554.05370979 552.2463321 553.38013516 551.55241848 552.68614916 C540.61512944 541.74771517 529.67787765 530.80924392 518.74062901 519.87076952 C475.33191408 476.45719485 431.92065408 433.04616678 388.50708008 389.63745117 C377.55983585 378.69142809 366.61259668 367.74539995 355.66539288 356.79933643 C354.9913724 356.12538641 354.31735193 355.45143638 353.62290659 354.75706363 C332.86238329 333.99869536 312.10247974 313.23970747 291.34325123 292.48004436 C290.36623672 291.50300948 290.36623672 291.50300948 289.36948455 290.50623652 C275.07413196 276.2105715 260.77893993 261.91474594 246.48389282 247.61877545 C241.36970423 242.50425771 236.2555076 237.38974801 231.14130868 232.2752406 C229.86900128 231.00285582 228.59669456 229.73047036 227.32438851 228.45808424 C208.28698499 209.41948583 189.24847424 190.38199527 170.20921162 171.34525604 C169.5844971 170.72062432 168.95978258 170.09599259 168.31613731 169.45243263 C167.69257239 168.82895039 167.06900746 168.20546814 166.42654662 167.56309249 C145.43094836 146.57024774 124.43722784 125.57552679 103.44564863 104.57866321 C101.19507339 102.32753557 98.94449029 100.07641578 96.69390106 97.82530212 C96.1415494 97.27282026 95.58919774 96.72033839 95.02010815 96.15111465 C86.24899098 87.37801963 77.47619362 78.60660673 68.70270914 69.83587921 C60.09104394 61.22684933 51.48114818 52.61605328 42.87317541 44.00333139 C38.26241389 39.39012357 33.65078756 34.7777864 29.03702136 30.16758332 C24.85016652 25.98392923 20.66556875 21.79803201 16.48285578 17.61023708 C14.96890566 16.09526951 13.45409481 14.58116155 11.93837615 13.0679634 C9.89875845 11.03150017 7.86217714 8.9920505 5.82639998 6.95174915 C5.227356 6.35509591 4.62831202 5.75844267 4.01111519 5.14370903 C0 1.11415573 0 1.11415573 0 0 Z " fill="#FFFFFF" transform="translate(0,240)"/>
</svg>
